# xmcd
#
# Track frame offsets:
#	150
#	29683
#	51671
#	74681
#	103062
#	112856
#	133185
#	154215
#	173534
#	202375
#	211075
#	227375
#	245832
#	268116
#	271514
#	292543
#	311459
#
# Disc length: 4411 seconds
#
# Revision: 1
# Processed by: cddbd v1.4PL0 Copyright (c) Steve Scherf et al.
# Submitted via: CDmax 2.0
#
DISCID=fb113911
DTITLE=Jon Carter - Viva Bugged Out!
DYEAR=2002
DGENRE=Dance
TTITLE0=Dubtribe Sound System-Equitoreal
TTITLE1=Tone Theory-If You Wanna Help Me Jesus (It's Alright)
TTITLE2=Africanism-Macumba Walele
TTITLE3=Yothu Yindi-Treaty PeaceDivision (Vocal)
TTITLE4=J.Grau-Watcha Perrita
TTITLE5=Jon Carter vs. Scanty-Need I Say More
TTITLE6=Sound Ritual-Back In The Jungle
TTITLE7=Del Gado-Coffee Beats Vol 2 (Session One) Wink - Superfreak (Freak) (
TTITLE7=Super Freak-A-Pella)
TTITLE8=Shaft-Kiki Riri Boom (Kid Creme remix)
TTITLE9=Latin Lovers-Voices Of Savanah
TTITLE10=Ceballos and DJ Chus-Afrika
TTITLE11=The Neanderthal-Caveman (aka Troglodyte)
TTITLE12=DJ Phenix-Do U Luv Me (Olav Basoski mix)
TTITLE13=Jon Carter-Everlasting Life (Percussion mix)
TTITLE14=Masters At Work-Work
TTITLE15=Unitedeye-Sambana
TTITLE16=Blue Rondo A La Turk-Me and Mr. Sanchez
EXTD=
EXTT0=
EXTT1=
EXTT2=
EXTT3=
EXTT4=
EXTT5=
EXTT6=
EXTT7=
EXTT8=
EXTT9=
EXTT10=
EXTT11=
EXTT12=
EXTT13=
EXTT14=
EXTT15=
EXTT16=
PLAYORDER=
